<svg width="446" height="151" viewBox="0 0 446 151" fill="none" xmlns="http://www.w3.org/2000/svg">
<path d="M172.747 40.4229H187.158L171.454 108.01H146.109L130.405 40.4229H144.817L156.546 96.0828H161.018L172.747 40.4229Z" fill="black"/>
<path d="M200.899 88.8271C200.965 91.8751 201.76 94.0949 203.284 95.4864C204.874 96.8116 207.127 97.4742 210.043 97.4742C216.205 97.4742 221.705 97.2755 226.542 96.8779L229.325 96.5797L229.524 106.42C221.904 108.275 215.012 109.203 208.85 109.203C201.363 109.203 195.929 107.215 192.55 103.239C189.17 99.2633 187.481 92.8028 187.481 83.8575C187.481 66.0331 194.803 57.1209 209.446 57.1209C223.891 57.1209 231.114 64.6084 231.114 79.5836L230.12 88.8271H200.899ZM217.994 78.6891C217.994 74.7133 217.365 71.9635 216.106 70.4395C214.847 68.8492 212.627 68.0541 209.446 68.0541C206.332 68.0541 204.112 68.8823 202.787 70.5389C201.528 72.1291 200.866 74.8459 200.799 78.6891H217.994Z" fill="black"/>
<path d="M238.645 108.01V58.3136H251.864V63.5814C257.43 60.2683 262.731 58.1148 267.767 57.1209V70.5389C262.399 71.6653 257.794 72.8249 253.951 74.0176L251.963 74.7134V108.01H238.645Z" fill="black"/>
<path d="M301.169 69.6443H288.944V90.0198C288.944 92.0077 288.977 93.4323 289.044 94.2937C289.176 95.0888 289.541 95.7846 290.137 96.3809C290.8 96.9773 291.793 97.2755 293.119 97.2755L300.673 97.0767L301.269 107.712C296.829 108.706 293.45 109.203 291.131 109.203C285.167 109.203 281.092 107.877 278.906 105.227C276.719 102.51 275.626 97.5405 275.626 90.318V69.6443H269.761V58.3136H275.626V44.498H288.944V58.3136H301.169V69.6443Z" fill="black"/>
<path d="M307.854 108.01V58.3136H321.173V108.01H307.854ZM307.854 51.9524V38.4351H321.173V51.9524H307.854Z" fill="black"/>
<path d="M376.516 114.172C376.516 119.871 374.329 124.078 369.956 126.795C365.583 129.512 359.652 130.87 352.165 130.87C344.744 130.87 339.012 129.876 334.97 127.888C330.994 125.901 329.006 122.289 329.006 117.055C329.006 112.88 331.392 108.938 336.163 105.227C333.711 103.57 332.485 101.052 332.485 97.673C332.485 96.3478 333.479 94.1612 335.467 91.1131L336.361 89.7216C331.856 86.4748 329.603 81.704 329.603 75.4091C329.603 69.048 331.491 64.4428 335.268 61.5935C339.111 58.7443 344.18 57.3196 350.475 57.3196C353.324 57.3196 356.141 57.651 358.924 58.3136L360.514 58.6118L376.516 58.1148V68.7498L369.062 68.1534C370.519 70.4063 371.248 72.6592 371.248 74.9121C371.248 81.5383 369.559 86.1104 366.179 88.6283C362.8 91.1463 357.499 92.4052 350.276 92.4052C348.752 92.4052 347.394 92.2727 346.201 92.0077C345.539 93.7305 345.207 95.1551 345.207 96.2815C345.207 97.3417 345.771 98.0706 346.897 98.4682C348.023 98.8657 350.674 99.0977 354.848 99.1639C363.197 99.2302 368.896 100.357 371.944 102.543C374.992 104.664 376.516 108.54 376.516 114.172ZM342.126 115.663C342.126 118.512 345.605 119.937 352.562 119.937C359.586 119.937 363.098 118.28 363.098 114.967C363.098 113.178 362.502 112.019 361.309 111.489C360.116 111.025 357.598 110.76 353.755 110.693L344.81 109.998C343.021 111.787 342.126 113.675 342.126 115.663ZM342.921 75.0115C342.921 79.8486 345.439 82.2672 350.475 82.2672C355.577 82.2672 358.128 79.8486 358.128 75.0115C358.128 70.1082 355.577 67.6565 350.475 67.6565C345.439 67.6565 342.921 70.1082 342.921 75.0115Z" fill="black"/>
<path d="M385.28 63.9789C388.792 59.4069 394.656 57.1209 402.873 57.1209C411.089 57.1209 416.954 59.4069 420.465 63.9789C423.977 68.4847 425.733 74.8459 425.733 83.0623C425.733 100.489 418.113 109.203 402.873 109.203C387.633 109.203 380.013 100.489 380.013 83.0623C380.013 74.8459 381.769 68.4847 385.28 63.9789ZM395.518 94.2937C396.909 96.6791 399.361 97.8718 402.873 97.8718C406.385 97.8718 408.803 96.6791 410.129 94.2937C411.52 91.9083 412.216 88.1645 412.216 83.0623C412.216 77.9602 411.52 74.2495 410.129 71.9304C408.803 69.6112 406.385 68.4516 402.873 68.4516C399.361 68.4516 396.909 69.6112 395.518 71.9304C394.193 74.2495 393.53 77.9602 393.53 83.0623C393.53 88.1645 394.193 91.9083 395.518 94.2937Z" fill="black"/>
<path fill-rule="evenodd" clip-rule="evenodd" d="M79.8884 36.6321C73.9365 34.1668 67.4972 33.1036 61.0688 33.525C54.6403 33.9463 48.3949 35.8409 42.8157 39.062L37.1865 42.312L30.6865 31.0537L36.3157 27.8037C43.6218 23.5855 51.8003 21.1046 60.2185 20.5528C68.6368 20.0011 77.0691 21.3933 84.8633 24.6217C92.6574 27.8501 99.6044 32.8283 105.167 39.171C110.729 45.5138 114.758 53.0512 116.942 61.2C119.125 69.3489 119.405 77.8908 117.759 86.165C116.113 94.4393 112.586 102.224 107.45 108.917C102.314 115.61 95.7079 121.032 88.1416 124.763C80.5753 128.494 70.8159 130.435 63.8157 130.435C56.8154 130.435 52.7279 129.385 47.36 127.162C42.143 125.001 37.4028 121.834 33.4098 117.841C29.4169 113.848 26.2496 109.107 24.0886 103.89C21.9277 98.6734 20.8154 93.0819 20.8154 87.4351C20.8154 81.7882 21.9277 76.1967 24.0886 70.9797C26.2496 65.7627 29.4169 61.0224 33.4098 57.0295C37.4028 53.0365 42.143 49.8692 47.36 47.7082C52.577 45.5473 58.1686 44.4351 63.8154 44.4351C69.4623 44.4351 75.0538 45.5473 80.2708 47.7082C85.4878 49.8692 90.2281 53.0366 94.221 57.0295C98.2139 61.0224 101.381 65.7627 103.542 70.9797C104.472 73.2237 105.207 75.5371 105.744 77.8943C106.006 73.4194 105.551 68.9186 104.385 64.5647C102.717 58.3419 99.6407 52.5861 95.393 47.7425C91.1453 42.899 85.8403 39.0975 79.8884 36.6321ZM37.8528 102.466C38.5901 88.4905 50.1559 77.3853 64.3154 77.3853C77.9276 77.3853 89.1427 87.6485 90.6445 100.859C90.9628 100.223 91.2588 99.5746 91.5318 98.9156C93.0395 95.2758 93.8154 91.3747 93.8154 87.4351C93.8154 83.4954 93.0395 79.5943 91.5318 75.9546C90.0242 72.3148 87.8144 69.0076 85.0286 66.2219C82.2429 63.4361 78.9357 61.2263 75.2959 59.7187C71.6562 58.211 67.7551 57.4351 63.8154 57.4351C59.8758 57.4351 55.9747 58.211 52.3349 59.7187C48.6952 61.2263 45.388 63.4361 42.6022 66.2219C39.8165 69.0076 37.6067 72.3148 36.099 75.9546C34.5914 79.5943 33.8154 83.4954 33.8154 87.4351C33.8154 91.3747 34.5914 95.2758 36.099 98.9156C36.6059 100.139 37.192 101.325 37.8528 102.466ZM77.8154 103.885C77.8154 111.341 71.7713 117.385 64.3154 117.385C56.8596 117.385 50.8154 111.341 50.8154 103.885C50.8154 96.4294 56.8596 90.3853 64.3154 90.3853C71.7713 90.3853 77.8154 96.4294 77.8154 103.885Z" fill="black"/>
</svg>
